<svg xmlns="http://www.w3.org/2000/svg" xmlns:svg="http://www.w3.org/2000/svg" xmlns:xlink="http://www.w3.org/1999/xlink" id="svg2" width="1000" height="1000" x="0" y="0" enable-background="new 0 0 1000 1000" version="1.1" viewBox="0 0 1000 1000" xml:space="preserve"><title id="title3794">pyLoad Logo</title><metadata id="metadata33"/><defs id="defs31"><color-profile id="color-profile3792" name="Generic-RGB-Profile" xlink:href="/System/Library/ColorSync/Profiles/Generic RGB Profile.icc"/><linearGradient id="linearGradient3778" x1="1220.123" x2="783.308" y1="134.541" y2="752.558" gradientTransform="matrix(0.5625,0,0,-0.568,125.7979,708.7776)" gradientUnits="userSpaceOnUse"><stop id="stop3780" offset="0" style="stop-color:#ffd856;stop-opacity:1"/><stop id="stop3782" offset="1" style="stop-color:#ffc836;stop-opacity:1"/></linearGradient><linearGradient id="linearGradient3005" x1="271.098" x2="1001.761" y1="499.066" y2="499.066" gradientTransform="matrix(1.0266298,0,0,1,-7.2192914,0)" gradientUnits="userSpaceOnUse" spreadMethod="pad" xlink:href="#linearGradient3778"/><linearGradient id="linearGradient3783" x1="25.992" x2="763.241" y1="239.761" y2="239.761" gradientUnits="userSpaceOnUse" xlink:href="#path1948_3_"/><filter id="filter3020" width="1.5" height="1.5" x="-.25" y="-.25"><feGaussianBlur id="feGaussianBlur3022" in="SourceAlpha" result="blur" stdDeviation="25"/><feColorMatrix id="feColorMatrix3024" result="bluralpha" type="matrix" values="1 0 0 0 0 0 1 0 0 0 0 0 1 0 0 0 0 0 0.5 0"/><feOffset id="feOffset3026" dx="15" dy="30" in="bluralpha" result="offsetBlur"/><feMerge id="feMerge3028"><feMergeNode id="feMergeNode3030" in="offsetBlur"/><feMergeNode id="feMergeNode3032" in="SourceGraphic"/></feMerge></filter><filter id="filter3023" width="1.5" height="1.5" x="-.25" y="-.25" color-interpolation-filters="sRGB"><feGaussianBlur id="feGaussianBlur3025" in="SourceAlpha" result="blur" stdDeviation="10"/><feColorMatrix id="feColorMatrix3027" result="result4" values="1 0 0 0 0 0 1 0 0 0 0 0 1 0 0 0 0 0 100 -1"/><feFlood id="feFlood3029" flood-color="#000" flood-opacity="1" in="blur" result="result1"/><feComposite id="feComposite3031" in="result1" in2="result4" operator="atop" result="result2"/><feComposite id="feComposite3033" in="SourceGraphic" in2="result2" operator="atop" result="result3"/></filter><filter id="filter3140" color-interpolation-filters="sRGB"><feGaussianBlur id="feGaussianBlur3142" in="SourceGraphic" result="result0" stdDeviation="6"/><feDiffuseLighting id="feDiffuseLighting3144" diffuseConstant="1" lighting-color="#FFF" result="result5" surfaceScale="4"><feDistantLight id="feDistantLight3146" azimuth="235" elevation="45"/></feDiffuseLighting><feComposite id="feComposite3148" in="result5" in2="SourceGraphic" k1="1.4" operator="arithmetic" result="fbSourceGraphic"/><feGaussianBlur id="feGaussianBlur3150" in="fbSourceGraphic" result="result0" stdDeviation="6"/><feSpecularLighting id="feSpecularLighting3152" in="result0" lighting-color="#FFF" result="result1" specularConstant="1" specularExponent="25" surfaceScale="4"><feDistantLight id="feDistantLight3154" azimuth="235" elevation="45"/></feSpecularLighting><feComposite id="feComposite3156" in="fbSourceGraphic" in2="result1" k2="1" k3="1" operator="arithmetic" result="result4"/><feComposite id="feComposite3158" in="result4" in2="SourceGraphic" operator="in" result="result2"/></filter></defs><g id="g2303" display="none" transform="translate(-21.799529,1.0000288)" style="display:none"><linearGradient id="path1948_2_" x1="-338.452" x2="627.551" y1="1559.313" y2="728.197" gradientTransform="matrix(0.5625,0,0,-0.568,125.7979,708.7776)" gradientUnits="userSpaceOnUse"><stop style="stop-color:#5a9fd4" id="stop5" offset="0"/><stop style="stop-color:#306998" id="stop7" offset="1"/></linearGradient><path id="path1948" d="M 493.674,-0.868 H 256.098 166.937 c -69.042,0 -129.5,41.498 -148.412,120.447 -21.813,90.495 -22.783,146.964 0,241.457 16.887,70.339 57.219,120.447 126.26,120.447 h 81.686 V 372.939 c 0,-78.413 67.856,-147.585 148.416,-147.585 h 237.298 c 66.057,0 118.787,-54.385 118.787,-120.727 L 730.846,-0.89" display="inline" style="fill:url(#path1948_2_);display:inline"/><linearGradient id="path1950_2_" x1="1186.256" x2="749.441" y1="133.973" y2="751.991" gradientTransform="matrix(0.5625,0,0,-0.568,125.7979,708.7776)" gradientUnits="userSpaceOnUse"><stop style="stop-color:#ffd43b" id="stop11" offset="0"/><stop style="stop-color:#ffe873" id="stop13" offset="1"/></linearGradient><path id="path1950" d="m 755.602,0.132 v 105.496 c 0,81.799 -69.346,150.631 -148.418,150.631 H 369.886 c -65.002,0 -118.788,55.632 -118.788,120.727 v 226.221 c 0,64.39 55.985,102.262 118.788,120.727 C 412.959,736.601 500,1000 500,1000 c 0,0 68.736,-264.907 107.184,-276.066 59.809,-17.313 118.787,-52.168 118.787,-120.727 V 512.666 H 488.673 V 482.483 H 725.97 844.761 c 69.049,0 94.783,-48.163 118.787,-120.447 24.809,-74.417 23.752,-145.985 0,-241.457 C 946.486,51.85 913.898,0.132 844.762,0.132 h -89.16 z M 622.137,573.026 c 24.627,0 44.578,20.179 44.578,45.137 0,25.041 -19.951,45.409 -44.578,45.409 -24.541,0 -44.58,-20.368 -44.58,-45.409 0,-24.958 20.039,-45.137 44.58,-45.137 z" display="inline" style="fill:url(#path1950_2_);display:inline"/></g><g id="g2303_1_" transform="translate(-21.799529,1.0000288)"><linearGradient id="path1948_3_" x1="-303.331" x2="662.672" y1="1560.568" y2="729.452" gradientTransform="matrix(0.57252813,0,0,-0.568,127.65196,708.7776)" gradientUnits="userSpaceOnUse"><stop style="stop-color:#3778b0;stop-opacity:1" id="stop18" offset="0"/><stop style="stop-color:#356b97;stop-opacity:1" id="stop20" offset="1"/></linearGradient><path style="fill:url(#linearGradient3783);fill-opacity:1" id="path1948_1_" d="M 187.6338,-0.828786 C 142.54691,-0.4970408 97.509189,20.00164 69.766894,55.506872 50.404869,79.267481 40.287236,108.86774 34.426911,138.63795 22.416163,189.64033 17.78885,242.92961 25.780677,294.93728 c 5.106096,32.23417 11.057028,64.60794 22.392916,95.27781 13.479342,35.90012 38.974607,69.46226 76.144837,82.91501 27.93718,10.93473 54.60541,6.72414 83.9641,7.53695 13.63487,0 24.96913,0 38.604,0 0.2713,-39.75457 -0.23921,-79.53817 0.7,-119.27522 4.44911,-60.56565 57.97765,-113.83582 116.49553,-129.10577 28.59598,-7.98504 58.75298,-3.97369 88.12613,-4.95196 65.78932,-0.1699 131.59413,0.33658 197.37399,-0.24727 46.56452,-2.36951 89.41253,-33.74388 105.96031,-76.7788 8.4927,-20.25194 9.04154,-42.50123 8.36849,-64.136866 -0.0327,-28.519022 -0.0719,-58.538168 -0.10062,-87.0571928 -160.2708,-0.8222611 -320.54247,-0.1692627 -480.8154,0.027 -31.78694,0.021047 -63.57472,-0.0424765 -95.36116,0.0302428 z"/><linearGradient id="path1950_3_" x1="1220.123" x2="783.308" y1="134.541" y2="752.558" gradientTransform="matrix(0.5625,0,0,-0.568,125.7979,708.7776)" gradientUnits="userSpaceOnUse" xlink:href="#linearGradient3778"><stop style="stop-color:#fae13f;stop-opacity:1" id="stop24" offset="0"/><stop style="stop-color:#facc2b;stop-opacity:1" id="stop26" offset="1"/></linearGradient><path id="path1950_1_" d="m 789.03685,-0.868 v 105.496 c 0,81.799 -71.19267,150.631 -152.37034,150.631 H 393.0493 c -66.73298,0 -121.9513,55.632 -121.9513,120.727 v 226.221 c 0,64.39 255.53022,396.793 255.53022,396.793 0,0 231.98858,-328.234 231.98858,-396.793 V 511.666 H 515.00061 V 481.483 H 758.6168 880.57116 c 70.88777,0 97.30706,-48.163 121.95034,-120.447 25.4697,-74.417 24.3844,-145.985 0,-241.457 C 985.00406,50.85 951.54825,-0.868 880.57116,-0.868 H 789.03685 z M 652.0177,572.026 c 25.28282,0 45.76511,20.179 45.76511,45.137 0,25.041 -20.48229,45.409 -45.76511,45.409 -25.19452,0 -45.76716,-20.368 -45.76716,-45.409 0,-24.958 20.57264,-45.137 45.76716,-45.137 z" style="fill:url(#linearGradient3005);fill-opacity:1"/></g></svg>